# File created by Blade
# Date/Time:  Tue Apr 07 20:45:29 2015
#---------------------------------------------------------
:version 1.10
:name HOM
:units
  mass 1.0
  length 1.000000
  angle deg
:documentation
     Acclaim Skeleton File
:root
   axis xyz
   order TX TY TZ RX RY RZ
   position 0.000000 0.000000 0.000000
   orientation 0 0 0
:bonedata
   begin
      id 1
      name Spine_dum
      direction 0.000000 1.000000 0.000000
      length 4.885285
      axis 0.0 0.0 0.0 xyz
   end
   begin
      id 2
      name LeftUpLeg_dum
      direction 1.000000 0.000000 0.000000
      length 2.672193
      axis 0.0 0.0 0.0 xyz
   end
   begin
      id 3
      name RightUpLeg_dum
      direction -1.000000 0.000000 0.000000
      length 2.672193
      axis 0.0 0.0 0.0 xyz
   end
   begin
      id 4
      name Spine
      direction 0.000000 1.000000 0.000000
      length 0.000000
      axis 0.0 0.0 0.0 xyz
      dof rx ry rz
   end
   begin
      id 5
      name Spine_dum1
      direction 0.000000 1.000000 0.000000
      length 16.494159
      axis 0.0 0.0 0.0 xyz
   end
   begin
      id 6
      name Spine_dum2
      direction 0.000000 1.000000 0.000000
      length 10.663448
      axis 0.0 0.0 0.0 xyz
   end
   begin
      id 7
      name Spine_dum3
      direction 0.000000 1.000000 0.000000
      length 10.663448
      axis 0.0 0.0 0.0 xyz
   end
   begin
      id 8
      name Head
      direction 0.000000 1.000000 0.000000
      length 4.527550
      axis 0.0 0.0 0.0 xyz
      dof rx ry rz
   end
   begin
      id 9
      name LeftShoulder
      direction 1.000000 0.000000 0.000000
      length 7.531907
      axis 0.0 0.0 -90.0 xyz
      dof rx ry rz
   end
   begin
      id 10
      name LeftArm
      direction 1.000000 0.000000 0.000000
      length 10.229199
      axis 0.0 0.0 -90.0 xyz
      dof rx ry rz
   end
   begin
      id 11
      name LeftForeArm
      direction 1.000000 0.000000 0.000000
      length 8.673495
      axis 0.0 0.0 -90.0 xyz
      dof ry rz rx
   end
   begin
      id 12
      name LeftHand
      direction 0.000000 0.000000 0.000000
      length 0.000000
      axis 0.0 0.0 -90.0 xyz
      dof rx ry rz
   end
   begin
      id 13
      name LeftHand_dum1
      direction 0.000000 0.000000 0.000000
      length 0.000000
      axis 0.0 0.0 -90.0 xyz
   end
   begin
      id 14
      name LeftHand_dum2
      direction 1.000000 0.000000 0.000000
      length 3.937000
      axis 0.0 0.0 -90.0 xyz
   end
   begin
      id 15
      name LeftHandThumb1
      direction 0.000000 0.000000 1.000000
      length 3.937000
      axis 0.0 0.0 -90.0 xyz
      dof rx rz ry
   end
   begin
      id 16
      name RightShoulder
      direction -1.000000 0.000000 0.000000
      length 7.531907
      axis 0.0 0.0 90.0 xyz
      dof rx ry rz
   end
   begin
      id 17
      name RightArm
      direction -1.000000 0.000000 0.000000
      length 10.229199
      axis 0.0 0.0 90.0 xyz
      dof rx ry rz
   end
   begin
      id 18
      name RightForeArm
      direction -1.000000 0.000000 0.000000
      length 8.673495
      axis 0.0 0.0 90.0 xyz
      dof ry rz rx
   end
   begin
      id 19
      name RightHand
      direction 0.000000 0.000000 0.000000
      length 0.000000
      axis 0.0 0.0 90.0 xyz
      dof rx ry rz
   end
   begin
      id 20
      name RightHand_dum1
      direction 0.000000 0.000000 0.000000
      length 0.000000
      axis 0.0 0.0 90.0 xyz
   end
   begin
      id 21
      name RightHand_dum2
      direction -1.000000 0.000000 0.000000
      length 3.937000
      axis 0.0 0.0 90.0 xyz
   end
   begin
      id 22
      name RightHandThumb1
      direction 0.000000 0.000000 1.000000
      length 3.937000
      axis 0.0 0.0 90.0 xyz
      dof rx rz ry
   end
   begin
      id 23
      name LeftUpLeg
      direction 0.000000 -1.000000 0.000000
      length 16.263388
      axis 0.0 0.0 0.0 xyz
      dof rx ry rz
   end
   begin
      id 24
      name LeftLeg
      direction 0.000000 -1.000000 0.000000
      length 14.328163
      axis 0.0 0.0 0.0 xyz
      dof rx ry rz
   end
   begin
      id 25
      name LeftFoot
      direction 0.000000 -0.258819 0.965926
      length 5.031290
      axis 15.0 0.0 0.0 xyz
      dof rx ry rz
   end
   begin
      id 26
      name LeftToeBase
      direction 0.000000 0.000000 1.000000
      length 2.952750
      axis 0.0 0.0 0.0 xyz
      dof rx ry rz
   end
   begin
      id 27
      name RightUpLeg
      direction 0.000000 -1.000000 0.000000
      length 16.263388
      axis 0.0 0.0 0.0 xyz
      dof rx ry rz
   end
   begin
      id 28
      name RightLeg
      direction 0.000000 -1.000000 0.000000
      length 14.328163
      axis 0.0 0.0 0.0 xyz
      dof rx ry rz
   end
   begin
      id 29
      name RightFoot
      direction 0.000000 -0.258819 0.965926
      length 5.031290
      axis 15.0 0.0 0.0 xyz
      dof rx ry rz
   end
   begin
      id 30
      name RightToeBase
      direction 0.000000 0.000000 1.000000
      length 2.952750
      axis 0.0 0.0 0.0 xyz
      dof rx ry rz
   end
:hierarchy
   begin
      root Spine_dum LeftUpLeg_dum RightUpLeg_dum
      Spine_dum Spine
      LeftUpLeg_dum LeftUpLeg
      RightUpLeg_dum RightUpLeg
      Spine Spine_dum1 Spine_dum2 Spine_dum3
      Spine_dum1 Head
      Spine_dum2 LeftShoulder
      Spine_dum3 RightShoulder
      LeftShoulder LeftArm
      LeftArm LeftForeArm
      LeftForeArm LeftHand
      LeftHand LeftHand_dum1 LeftHand_dum2
      LeftHand_dum1 LeftHandThumb1
      RightShoulder RightArm
      RightArm RightForeArm
      RightForeArm RightHand
      RightHand RightHand_dum1 RightHand_dum2
      RightHand_dum1 RightHandThumb1
      LeftUpLeg LeftLeg
      LeftLeg LeftFoot
      LeftFoot LeftToeBase
      RightUpLeg RightLeg
      RightLeg RightFoot
      RightFoot RightToeBase
   end

# File created by Blade
# Date/Time:  Tue Apr 07 20:45:22 2015
# Frame Rate: 120.000 fps
#------------------------------------------------------
:FULLY-SPECIFIED
:DEGREES
201
root 4.146277 32.743462 -6.999667 6.156992 -11.198514 -11.106504
Spine 21.842248 12.979803 10.919055
Head -14.436109 -6.157814 7.272676
LeftShoulder -13.860212 39.297187 15.879663
LeftArm 59.027156 6.652143 -81.286645
LeftForeArm 1.310606 -0.000000 25.594209
LeftHand 6.659755 -0.000000 10.511632
LeftHandThumb1 -26.253704 0.000000 33.147579
RightShoulder 9.387990 9.888935 -12.605516
RightArm 29.907009 1.664322 97.075108
RightForeArm 51.142897 -0.000000 7.550572
RightHand 13.430794 -0.000000 2.257379
RightHandThumb1 -24.326973 -0.000000 -32.862282
LeftUpLeg -15.998410 -3.400126 4.462966
LeftLeg 17.413334 -0.000000 -0.000000
LeftFoot -7.360579 22.374011 -1.501224
LeftToeBase -12.371547 -0.000000 0.000000
RightUpLeg -96.149024 -25.490644 19.594413
RightLeg 91.130621 -0.000000 -0.000000
RightFoot 28.135256 -3.754493 9.988585
RightToeBase 12.183943 -0.000000 -0.000000
202
root 4.152704 32.731686 -7.012659 5.938238 -11.126740 -11.161525
Spine 22.483773 13.137019 11.190545
Head -15.174531 -6.238153 7.431632
LeftShoulder -13.971407 39.249568 15.878708
LeftArm 58.994496 6.583177 -81.317278
LeftForeArm 1.283708 -0.000000 25.974210
LeftHand 6.609868 -0.000000 10.667964
LeftHandThumb1 -26.253704 0.000000 33.147579
RightShoulder 9.352237 10.030457 -12.642880
RightArm 29.827583 1.846742 97.301519
RightForeArm 52.235911 -0.000000 7.062062
RightHand 12.691079 -0.000000 2.228111
RightHandThumb1 -24.326973 -0.000000 -32.862282
LeftUpLeg -15.976759 -3.640167 4.514736
LeftLeg 17.755124 -0.000000 -0.000000
LeftFoot -7.401989 22.538051 -1.413417
LeftToeBase -12.403249 -0.000000 0.000000
RightUpLeg -97.598102 -25.595317 20.003961
RightLeg 91.625205 -0.000000 -0.000000
RightFoot 28.342047 -3.930877 9.818753
RightToeBase 12.181581 -0.000000 -0.000000
203
root 4.157305 32.720210 -7.024017 5.694181 -11.057822 -11.247291
Spine 23.157724 13.259936 11.497738
Head -15.910151 -6.310338 7.583510
LeftShoulder -14.095006 39.203413 15.831258
LeftArm 58.925669 6.475505 -81.347643
LeftForeArm 1.247790 0.000000 26.401340
LeftHand 6.604900 0.000000 10.748022
LeftHandThumb1 -26.253704 0.000000 33.147579
RightShoulder 9.319224 10.132638 -12.697042
RightArm 29.810834 2.011388 97.501678
RightForeArm 53.281563 -0.000000 6.551891
RightHand 11.933573 -0.000000 2.164016
RightHandThumb1 -24.326973 -0.000000 -32.862282
LeftUpLeg -15.914906 -3.880905 4.601485
LeftLeg 18.094295 -0.000000 -0.000000
LeftFoot -7.483780 22.674727 -1.368175
LeftToeBase -12.446671 -0.000000 0.000000
RightUpLeg -98.964321 -25.671198 20.414935
RightLeg 92.080496 -0.000000 -0.000000
RightFoot 28.503677 -4.046758 9.616387
RightToeBase 12.098935 -0.000000 -0.000000
204
root 4.161913 32.707360 -7.031045 5.424755 -11.001828 -11.317564
Spine 23.840049 13.358638 11.789597
Head -16.607372 -6.396615 7.695832
LeftShoulder -14.259176 39.231902 15.702085
LeftArm 58.925068 6.304799 -81.375280
LeftForeArm 1.304224 -0.000000 26.803694
LeftHand 6.609737 -0.000000 10.756330
LeftHandThumb1 -26.253704 0.000000 33.147579
RightShoulder 9.311311 10.263282 -12.727368
RightArm 29.741839 2.286807 97.704568
RightForeArm 54.239835 -0.000000 6.104717
RightHand 11.190481 0.000000 2.060020
RightHandThumb1 -24.326973 -0.000000 -32.862282
LeftUpLeg -15.830640 -4.106096 4.669286
LeftLeg 18.458055 -0.000000 -0.000000
LeftFoot -7.561490 22.786370 -1.338631
LeftToeBase -12.572717 -0.000000 0.000000
RightUpLeg -100.291962 -25.738435 20.813280
RightLeg 92.525654 -0.000000 -0.000000
RightFoot 28.654897 -4.193895 9.475218
RightToeBase 12.158960 -0.000000 -0.000000
205
root 4.163827 32.695119 -7.034463 5.125747 -10.956650 -11.453628
Spine 24.548974 13.423996 12.165710
Head -17.243048 -6.453509 7.763332
LeftShoulder -14.413669 39.221911 15.541440
LeftArm 58.848753 6.144682 -81.358171
LeftForeArm 1.349328 -0.000000 27.227157
LeftHand 6.509723 -0.000000 10.768278
LeftHandThumb1 -26.253704 0.000000 33.147579
RightShoulder 9.319395 10.328477 -12.790001
RightArm 29.793541 2.525896 97.874504
RightForeArm 55.449693 -0.000000 5.565392
RightHand 10.525273 0.000000 1.918301
RightHandThumb1 -24.326973 -0.000000 -32.862282
LeftUpLeg -15.706704 -4.366817 4.803720
LeftLeg 18.852231 -0.000000 -0.000000
LeftFoot -7.785307 22.902483 -1.486391
LeftToeBase -12.457553 -0.000000 0.000000
RightUpLeg -101.527649 -25.789856 21.241087
RightLeg 92.953621 -0.000000 -0.000000
RightFoot 28.795115 -4.345716 9.478132
RightToeBase 12.297551 -0.000000 -0.000000
